<?xml version="1.0" encoding="UTF-8"?>
<svg width="700pt" height="700pt" version="1.1" viewBox="0 0 700 700" xmlns="http://www.w3.org/2000/svg" xmlns:xlink="http://www.w3.org/1999/xlink">

 <g>
  <path d="m414.52 233.33-67.434 68.949-38.734-37.449h0.003906c-4.543-4.6055-11.961-4.6562-16.566-0.11719-4.6094 4.543-4.6602 11.961-0.11719 16.57l46.668 45.617-0.003907-0.003906c0.82422 0.65625 1.7266 1.2031 2.6836 1.6367 0.32422 0.26953 0.67578 0.50781 1.0508 0.69922 1.3672 0.58203 2.832 0.89844 4.3164 0.93359 1.5625-0.03125 3.1055-0.34766 4.5508-0.93359l1.2852-0.93359h-0.003906c0.95312-0.43359 1.8203-1.0234 2.5703-1.75l76.883-77.117c4.2969-4.5078 4.2969-11.594 0-16.102-2.2109-2.3945-5.3203-3.7539-8.5781-3.7539-3.2539 0-6.3633 1.3594-8.5742 3.7539z"/>
  <path d="m445.67 163.33c1.8906-2.4805 2.7109-5.6211 2.2734-8.7109-0.4375-3.0938-2.0977-5.8789-4.6094-7.7383-27.34-19.121-59.969-29.238-93.332-28.934-48.109 0.17969-93.645 21.773-124.23 58.918-30.578 37.141-43.035 85.969-33.977 133.22 9.0547 47.25 38.684 88.016 80.832 111.21 42.148 23.203 92.438 26.43 137.2 8.8047 44.77-17.621 79.363-54.262 94.387-99.969s8.9141-95.727-16.668-136.47c-3.4141-5.4766-10.625-7.1484-16.102-3.7344-5.4766 3.4141-7.1484 10.621-3.7344 16.102 24.625 39.105 28.141 87.91 9.3711 130.14-18.77 42.227-57.348 72.324-102.88 80.254-45.527 7.9297-92.012-7.3555-123.95-40.754-31.941-33.398-45.133-80.52-35.176-125.65 9.9531-45.125 41.746-82.324 84.773-99.188 43.023-16.859 91.625-11.168 129.59 15.176 5.2266 3.7109 12.465 2.5156 16.219-2.6836z"/>
  <use x="70" y="735" xlink:href="#h"/>
  <use x="220.503906" y="735" xlink:href="#g"/>
  <use x="287.953125" y="735" xlink:href="#f"/>
  <use x="350.015625" y="735" xlink:href="#e"/>
  <use x="450.105469" y="735" xlink:href="#d"/>
  <use x="579.417969" y="735" xlink:href="#c"/>
  <use x="638.976562" y="735" xlink:href="#b"/>
  <use x="679.28125" y="735" xlink:href="#a"/>
 </g>
</svg>
