<svg width="25" height="25" viewBox="0 0 25 25" fill="none" xmlns="http://www.w3.org/2000/svg">
<path d="M3.12504 7.14282C2.54991 7.14282 2.08325 7.54252 2.08325 8.03578V21.4287C2.08325 22.3758 2.52236 23.2843 3.30361 23.954C4.08521 24.6239 5.14513 25 6.25004 25H18.75C19.8549 25 20.9149 24.6239 21.6965 23.954C22.4777 23.2843 22.9168 22.3758 22.9168 21.4287V8.03578C22.9168 7.54252 22.4502 7.14282 21.875 7.14282C21.2999 7.14282 20.8332 7.54252 20.8332 8.03578V21.4287C20.8332 21.9023 20.6139 22.3564 20.2232 22.6912C19.8326 23.0263 19.3025 23.2144 18.75 23.2144H6.25004C5.69758 23.2144 5.16745 23.0263 4.77682 22.6912C4.3862 22.3564 4.16682 21.9022 4.16682 21.4287V8.03578C4.16682 7.79901 4.05696 7.57181 3.86164 7.4044C3.66633 7.23699 3.40127 7.14282 3.12504 7.14282Z" fill="#557576"/>
<path d="M25 4.46423C25 4.22745 24.8901 4.00026 24.6948 3.83284C24.4995 3.66543 24.2344 3.57126 23.9582 3.57126H17.7082V0.892668C17.7082 0.655896 17.5987 0.428996 17.4034 0.261285C17.2077 0.0938732 16.943 0 16.6668 0H8.33321C7.75809 0 7.29178 0.399699 7.29178 0.89266V3.57125H1.04179C0.466312 3.57125 0 3.97125 0 4.46422C0 4.95719 0.466312 5.35718 1.04179 5.35718H23.9578C24.2341 5.35718 24.4991 5.26301 24.6945 5.0956C24.8898 4.92819 25 4.701 25 4.46423ZM9.375 3.57126V1.78563H15.625V3.57126H9.375Z" fill="#557576"/>
<path d="M16.6669 19.6427V8.03594C16.6669 7.54267 16.2003 7.14297 15.6252 7.14297C15.05 7.14297 14.5834 7.54267 14.5834 8.03594V19.6427C14.5834 20.1359 15.05 20.5356 15.6252 20.5356C16.2003 20.5356 16.6669 20.1359 16.6669 19.6427Z" fill="#557576"/>
<path d="M10.4169 19.6427V8.03594C10.4169 7.54267 9.95028 7.14297 9.37516 7.14297C8.80003 7.14297 8.33337 7.54267 8.33337 8.03594V19.6427C8.33337 20.1359 8.80003 20.5356 9.37516 20.5356C9.95028 20.5356 10.4169 20.1359 10.4169 19.6427Z" fill="#557576"/>
</svg>
