<?xml version="1.0" encoding="UTF-8"?>
<svg width="700pt" height="700pt" version="1.1" viewBox="0 0 700 700" xmlns="http://www.w3.org/2000/svg" xmlns:xlink="http://www.w3.org/1999/xlink">
 <g>
  <path d="m188.77 441.35c4.8359 0.035157 9.1953-2.918 10.953-7.4219 1.7617-4.5039 0.55859-9.6289-3.0195-12.879-26.18-23.996-45.176-54.797-54.863-88.965-9.6914-34.168-9.6914-70.355 0-104.52 9.6875-34.164 28.684-64.969 54.863-88.961 4.7383-4.3828 5.0234-11.773 0.64062-16.512-4.3789-4.7344-11.77-5.0195-16.508-0.64062-29.371 26.918-50.684 61.473-61.555 99.805-10.867 38.332-10.867 78.93 0 117.26 10.871 38.332 32.184 72.887 61.555 99.805 2.1719 1.9727 5.0039 3.0547 7.9336 3.0352z"/>
  <path d="m217.12 402.38c2.125 1.875 4.8633 2.9141 7.6992 2.918 3.2695-0.070312 6.3594-1.5117 8.5156-3.9688 4.2578-4.7227 3.9492-11.988-0.69922-16.332-30.133-26.578-47.398-64.82-47.398-105s17.266-78.422 47.398-105c2.4961-2.0039 4.0586-4.9453 4.3242-8.1328 0.26562-3.1914-0.78906-6.3477-2.9219-8.7344-2.1328-2.3867-5.1484-3.7969-8.3477-3.8945-3.1992-0.097656-6.2969 1.125-8.5703 3.3789-35.156 31.004-55.301 75.621-55.301 122.5 0 46.875 20.145 91.492 55.301 122.5z"/>
  <path d="m268.33 211.05c4.8945-4.1094 5.5703-11.395 1.5195-16.336-4.0781-4.9297-11.363-5.6562-16.336-1.6328-25.812 21.414-40.746 53.207-40.746 86.742 0 33.539 14.934 65.332 40.746 86.742 2.0391 1.7695 4.6562 2.7227 7.3516 2.6836 3.4688 0.003906 6.7617-1.5352 8.9844-4.1992 1.9844-2.3828 2.9375-5.4531 2.6523-8.5391-0.28516-3.0859-1.7852-5.9336-4.1719-7.9102-20.422-17.004-32.234-42.203-32.234-68.777s11.812-51.773 32.234-68.773z"/>
  <path d="m431.67 236.71v-3.3828h43.75c7.7734-0.19531 14.266 5.8828 14.582 13.652 0 6.4414 5.2227 11.664 11.668 11.664 6.4414 0 11.664-5.2227 11.664-11.664-0.15234-9.9453-4.2422-19.422-11.371-26.352-7.1289-6.9336-16.719-10.758-26.66-10.633h-50.516c-2.8398-4.0078-6.5469-7.3203-10.852-9.6836l-70.699-44.449c-5.4023-2.9336-11.48-4.3906-17.625-4.2266s-12.137 1.9453-17.375 5.1602c-10.336 6.4023-16.605 17.707-16.566 29.867v186.66c0 9.2852 3.6875 18.188 10.25 24.75s15.465 10.25 24.75 10.25c6.1641 0.015625 12.23-1.5508 17.617-4.5469l69.301-43.516-0.003907-0.003906c4.5742-2.3008 8.5664-5.6094 11.668-9.6836h50.516c10.004 0 19.594-3.9883 26.648-11.086 7.0508-7.0938 10.98-16.711 10.918-26.711v-21.117c0-6.4453-5.2227-11.668-11.664-11.668-6.4453 0-11.668 5.2227-11.668 11.668v21c-0.058594 3.8164-1.6523 7.4492-4.4141 10.078-2.7656 2.6328-6.4727 4.0469-10.285 3.9219h-43.633zm-23.332 93.332-0.003907 0.003906c0.019531 2.5664-0.89062 5.0547-2.5664 7-1.082 1.4258-2.4805 2.582-4.082 3.3828l-69.301 43.516c-3.6094 2.0859-8.0547 2.0859-11.668 0-3.7266-2.2031-5.9258-6.2891-5.7148-10.617v-186.66c-0.066406-3.9844 2.0312-7.6914 5.4844-9.6836 1.8477-1.1992 3.9805-1.8867 6.1836-1.9844 1.6133-0.015625 3.2109 0.34375 4.6641 1.0508l70.699 44.449h0.003906c1.5117 0.79297 2.7969 1.957 3.7305 3.3828 0.53906 0.71094 0.97266 1.4961 1.2852 2.332 0.5 1.2656 0.77734 2.6094 0.81641 3.9688v99.285z"/>
  <use x="70" y="735" xlink:href="#h"/>
  <use x="220.503906" y="735" xlink:href="#g"/>
  <use x="287.953125" y="735" xlink:href="#f"/>
  <use x="350.015625" y="735" xlink:href="#e"/>
  <use x="450.105469" y="735" xlink:href="#d"/>
  <use x="579.417969" y="735" xlink:href="#c"/>
  <use x="638.976562" y="735" xlink:href="#b"/>
  <use x="679.28125" y="735" xlink:href="#a"/>
 </g>
</svg>
