<svg width="25" height="25" viewBox="0 0 25 25" fill="none" xmlns="http://www.w3.org/2000/svg">
<path d="M24.9996 12.4993C25.0107 13.2539 24.798 13.9973 24.3838 14.651C23.9694 15.3046 23.369 15.8442 22.6461 16.2128L7.06076 24.41C6.34893 24.7962 5.53582 25 4.70724 25C3.87887 25 3.06576 24.7962 2.35393 24.41C1.63078 24.0414 1.03059 23.5018 0.616227 22.8481C0.202044 22.1945 -0.0106996 21.4511 0.000414165 20.6965V4.30209C-0.0105369 3.54763 0.202424 2.80457 0.616627 2.15113C1.03081 1.49788 1.63118 0.958451 2.35393 0.590048C3.06576 0.203821 3.87887 0 4.70724 0C5.53582 0 6.34893 0.203803 7.06076 0.590048L22.6461 8.78586C23.369 9.15445 23.9694 9.69406 24.3838 10.3477C24.798 11.0013 25.0107 11.7446 24.9996 12.4993Z" fill="#557576"/>
</svg>
