<?xml version="1.0" encoding="UTF-8"?>
<svg width="700pt" height="700pt" version="1.1" viewBox="0 0 700 700" xmlns="http://www.w3.org/2000/svg" xmlns:xlink="http://www.w3.org/1999/xlink">
 <g>
  <path d="m296.68 336.93c2.1914 2.207 5.1719 3.4492 8.2812 3.4492 3.1133 0 6.0938-1.2422 8.2852-3.4492l37.449-38.852 38.734 37.449v0.003906c2.1914 2.1094 5.1211 3.2812 8.168 3.2656 3.1172-0.015625 6.0977-1.2734 8.2812-3.5 2.2109-2.1914 3.4531-5.1719 3.4531-8.2852 0-3.1094-1.2422-6.0898-3.4531-8.2812l-38.734-37.449 37.332-38.734h0.003906c4.5234-4.5508 4.5234-11.898 0-16.449-2.1914-2.2109-5.1719-3.4531-8.2852-3.4531-3.1094 0-6.0938 1.2422-8.2812 3.4531l-37.918 38.73-38.852-37.449c-4.6367-4.4766-12.027-4.3477-16.508 0.29297-4.4766 4.6367-4.3477 12.031 0.29297 16.508l38.852 37.449-37.449 38.852h-0.003907c-4.4258 4.6445-4.2695 11.996 0.35156 16.449z"/>
  <path d="m445.67 163.33c1.8906-2.4805 2.7109-5.6211 2.2734-8.7109-0.4375-3.0938-2.0977-5.8789-4.6094-7.7383-27.34-19.121-59.969-29.238-93.332-28.934-48.109 0.17969-93.645 21.773-124.23 58.918-30.578 37.141-43.035 85.969-33.977 133.22 9.0547 47.25 38.684 88.016 80.832 111.21 42.148 23.203 92.438 26.43 137.2 8.8047 44.77-17.621 79.363-54.262 94.387-99.969s8.9141-95.727-16.668-136.47c-3.4141-5.4766-10.625-7.1484-16.102-3.7344-5.4766 3.4141-7.1484 10.621-3.7344 16.102 24.625 39.105 28.141 87.91 9.3711 130.14-18.77 42.227-57.348 72.324-102.88 80.254-45.527 7.9297-92.012-7.3555-123.95-40.754-31.941-33.398-45.133-80.52-35.176-125.65 9.9531-45.125 41.746-82.324 84.773-99.188 43.023-16.859 91.625-11.168 129.59 15.176 5.2266 3.7109 12.465 2.5156 16.219-2.6836z"/>
  <use x="70" y="735" xlink:href="#h"/>
  <use x="220.503906" y="735" xlink:href="#g"/>
  <use x="287.953125" y="735" xlink:href="#f"/>
  <use x="350.015625" y="735" xlink:href="#e"/>
  <use x="450.105469" y="735" xlink:href="#d"/>
  <use x="579.417969" y="735" xlink:href="#c"/>
  <use x="638.976562" y="735" xlink:href="#b"/>
  <use x="679.28125" y="735" xlink:href="#a"/>
 </g>
</svg>
